<svg width="53" height="48" viewBox="0 0 53 48" fill="none" xmlns="http://www.w3.org/2000/svg">
<path fill-rule="evenodd" clip-rule="evenodd" d="M20.9133 15.1375C23.7899 13.596 27.3256 13.6229 30.1751 15.2081C32.9967 16.8255 34.7115 19.7122 34.6956 22.8175C34.6299 25.9024 32.7911 28.8021 30.4926 31.0438C29.1659 32.3435 27.6818 33.4927 26.0707 34.4681C25.9047 34.5565 25.723 34.6158 25.5343 34.6429C25.3528 34.6357 25.176 34.5863 25.0199 34.4989C22.5601 33.0334 20.4021 31.1628 18.6497 28.977C17.1834 27.1524 16.3503 24.948 16.2636 22.6632C16.2617 19.552 18.0368 16.679 20.9133 15.1375ZM22.576 23.9509C23.0599 25.0512 24.202 25.7688 25.4691 25.7688C26.2992 25.7743 27.0972 25.4676 27.6852 24.9171C28.2732 24.3666 28.6024 23.6181 28.5995 22.8382C28.6039 21.6478 27.844 20.5722 26.6746 20.1138C25.5053 19.6553 24.157 19.9044 23.2595 20.7447C22.3619 21.585 22.0921 22.8507 22.576 23.9509Z" fill="black"/>
<path d="M51.5437 24C51.5437 36.9414 40.156 47.5 26.0218 47.5C11.8877 47.5 0.5 36.9414 0.5 24C0.5 11.0586 11.8877 0.5 26.0218 0.5C40.156 0.5 51.5437 11.0586 51.5437 24Z" stroke="#C3D3E2"/>
</svg>
