<svg width="53" height="48" viewBox="0 0 53 48" fill="none" xmlns="http://www.w3.org/2000/svg">
<path d="M51.5437 24C51.5437 36.9414 40.156 47.5 26.0218 47.5C11.8877 47.5 0.5 36.9414 0.5 24C0.5 11.0586 11.8877 0.5 26.0218 0.5C40.156 0.5 51.5437 11.0586 51.5437 24Z" stroke="#C3D3E2"/>
<path d="M20.0151 19.8423C22.0566 24.9789 24.1701 27.0284 29.5469 29.2113L27.2168 32.2295C21.0425 29.5032 17.9673 24.9076 16.5189 21.3213L20.0151 19.8423Z" fill="black"/>
<path d="M21.7273 12.7509C22.819 12.7469 23.649 13.5847 23.5746 14.5334C23.4575 16.0263 23.5822 17.1034 23.9179 18.4385C24.1023 19.1719 23.6851 19.9167 23.0221 20.3965C22.1285 21.0431 21.4458 21.867 20.9033 22.5763C20.1512 23.5594 17.5632 23.4888 16.9908 22.4178C15.8145 20.2167 15.0174 16.1616 16.7351 13.4219C17.0049 12.9916 17.5481 12.766 18.1111 12.7639L21.7273 12.7509Z" fill="black"/>
<path d="M38.2982 29.0388C38.434 28.0953 37.579 27.2768 36.4888 27.2271C34.7732 27.1488 33.5606 26.9115 32.0793 26.4606C31.2656 26.213 30.3665 26.4842 29.74 26.9997C28.8956 27.6947 27.8744 28.1859 27.0007 28.5698C25.7898 29.1018 25.5591 31.3483 26.7109 31.972C29.0781 33.2538 33.604 34.4308 36.9331 33.275C37.456 33.0934 37.7785 32.6508 37.8485 32.1643L38.2982 29.0388Z" fill="black"/>
</svg>
