<svg width="53" height="48" viewBox="0 0 53 48" fill="none" xmlns="http://www.w3.org/2000/svg">
<g clip-path="url(#clip0_127_584)">
<path d="M30.5 18.5H30.51M20 14H30C32.7614 14 35 16.2386 35 19V29C35 31.7614 32.7614 34 30 34H20C17.2386 34 15 31.7614 15 29V19C15 16.2386 17.2386 14 20 14ZM29 23.37C29.1234 24.2022 28.9813 25.0522 28.5938 25.799C28.2063 26.5458 27.5931 27.1514 26.8416 27.5297C26.0901 27.9079 25.2384 28.0396 24.4078 27.9059C23.5771 27.7723 22.8098 27.3801 22.2148 26.7852C21.6199 26.1902 21.2277 25.4229 21.0941 24.5922C20.9604 23.7616 21.0921 22.9099 21.4703 22.1584C21.8486 21.4069 22.4542 20.7937 23.201 20.4062C23.9478 20.0187 24.7978 19.8766 25.63 20C26.4789 20.1259 27.2649 20.5215 27.8717 21.1283C28.4785 21.7351 28.8741 22.5211 29 23.37Z" stroke="#1E1E1E" stroke-width="2.5" stroke-linecap="round" stroke-linejoin="round"/>
</g>
<path d="M51.5437 24C51.5437 36.9414 40.156 47.5 26.0218 47.5C11.8877 47.5 0.5 36.9414 0.5 24C0.5 11.0586 11.8877 0.5 26.0218 0.5C40.156 0.5 51.5437 11.0586 51.5437 24Z" stroke="#C3D3E2"/>
<defs>
<clipPath id="clip0_127_584">
<rect width="24" height="24" fill="white" transform="translate(13 12)"/>
</clipPath>
</defs>
</svg>
