<svg width="53" height="48" viewBox="0 0 53 48" fill="none" xmlns="http://www.w3.org/2000/svg">
<path d="M25 34C23.6333 34 22.3417 33.7375 21.125 33.2125C19.9083 32.6875 18.8458 31.9708 17.9375 31.0625C17.0292 30.1542 16.3125 29.0917 15.7875 27.875C15.2625 26.6583 15 25.3667 15 24C15 22.6167 15.2625 21.3208 15.7875 20.1125C16.3125 18.9042 17.0292 17.8458 17.9375 16.9375C18.8458 16.0292 19.9083 15.3125 21.125 14.7875C22.3417 14.2625 23.6333 14 25 14C26.3833 14 27.6792 14.2625 28.8875 14.7875C30.0958 15.3125 31.1542 16.0292 32.0625 16.9375C32.9708 17.8458 33.6875 18.9042 34.2125 20.1125C34.7375 21.3208 35 22.6167 35 24C35 25.3667 34.7375 26.6583 34.2125 27.875C33.6875 29.0917 32.9708 30.1542 32.0625 31.0625C31.1542 31.9708 30.0958 32.6875 28.8875 33.2125C27.6792 33.7375 26.3833 34 25 34ZM25 31.95C25.4333 31.35 25.8083 30.725 26.125 30.075C26.4417 29.425 26.7 28.7333 26.9 28H23.1C23.3 28.7333 23.5583 29.425 23.875 30.075C24.1917 30.725 24.5667 31.35 25 31.95ZM22.4 31.55C22.1 31 21.8375 30.4292 21.6125 29.8375C21.3875 29.2458 21.2 28.6333 21.05 28H18.1C18.5833 28.8333 19.1875 29.5583 19.9125 30.175C20.6375 30.7917 21.4667 31.25 22.4 31.55ZM27.6 31.55C28.5333 31.25 29.3625 30.7917 30.0875 30.175C30.8125 29.5583 31.4167 28.8333 31.9 28H28.95C28.8 28.6333 28.6125 29.2458 28.3875 29.8375C28.1625 30.4292 27.9 31 27.6 31.55ZM17.25 26H20.65C20.6 25.6667 20.5625 25.3375 20.5375 25.0125C20.5125 24.6875 20.5 24.35 20.5 24C20.5 23.65 20.5125 23.3125 20.5375 22.9875C20.5625 22.6625 20.6 22.3333 20.65 22H17.25C17.1667 22.3333 17.1042 22.6625 17.0625 22.9875C17.0208 23.3125 17 23.65 17 24C17 24.35 17.0208 24.6875 17.0625 25.0125C17.1042 25.3375 17.1667 25.6667 17.25 26ZM22.65 26H27.35C27.4 25.6667 27.4375 25.3375 27.4625 25.0125C27.4875 24.6875 27.5 24.35 27.5 24C27.5 23.65 27.4875 23.3125 27.4625 22.9875C27.4375 22.6625 27.4 22.3333 27.35 22H22.65C22.6 22.3333 22.5625 22.6625 22.5375 22.9875C22.5125 23.3125 22.5 23.65 22.5 24C22.5 24.35 22.5125 24.6875 22.5375 25.0125C22.5625 25.3375 22.6 25.6667 22.65 26ZM29.35 26H32.75C32.8333 25.6667 32.8958 25.3375 32.9375 25.0125C32.9792 24.6875 33 24.35 33 24C33 23.65 32.9792 23.3125 32.9375 22.9875C32.8958 22.6625 32.8333 22.3333 32.75 22H29.35C29.4 22.3333 29.4375 22.6625 29.4625 22.9875C29.4875 23.3125 29.5 23.65 29.5 24C29.5 24.35 29.4875 24.6875 29.4625 25.0125C29.4375 25.3375 29.4 25.6667 29.35 26ZM28.95 20H31.9C31.4167 19.1667 30.8125 18.4417 30.0875 17.825C29.3625 17.2083 28.5333 16.75 27.6 16.45C27.9 17 28.1625 17.5708 28.3875 18.1625C28.6125 18.7542 28.8 19.3667 28.95 20ZM23.1 20H26.9C26.7 19.2667 26.4417 18.575 26.125 17.925C25.8083 17.275 25.4333 16.65 25 16.05C24.5667 16.65 24.1917 17.275 23.875 17.925C23.5583 18.575 23.3 19.2667 23.1 20ZM18.1 20H21.05C21.2 19.3667 21.3875 18.7542 21.6125 18.1625C21.8375 17.5708 22.1 17 22.4 16.45C21.4667 16.75 20.6375 17.2083 19.9125 17.825C19.1875 18.4417 18.5833 19.1667 18.1 20Z" fill="#1D1B20"/>
<path d="M51.5437 24C51.5437 36.9414 40.156 47.5 26.0218 47.5C11.8877 47.5 0.5 36.9414 0.5 24C0.5 11.0586 11.8877 0.5 26.0218 0.5C40.156 0.5 51.5437 11.0586 51.5437 24Z" stroke="#C3D3E2"/>
</svg>
