<svg width="20" height="18" viewBox="0 0 20 18" fill="none" xmlns="http://www.w3.org/2000/svg">
<g clip-path="url(#clip0_26_1314)">
<path d="M9.2572 3.13333H3.78556C3.37094 3.13333 2.9733 3.28786 2.68012 3.56291C2.38694 3.83796 2.22223 4.21101 2.22223 4.6V14.8667C2.22223 15.2556 2.38694 15.6287 2.68012 15.9038C2.9733 16.1788 3.37094 16.3333 3.78556 16.3333H14.7288C15.1435 16.3333 15.5411 16.1788 15.8343 15.9038C16.1275 15.6287 16.2922 15.2556 16.2922 14.8667V9.73333M15.1197 2.03333C15.4306 1.74159 15.8524 1.5777 16.2922 1.5777C16.7319 1.5777 17.1537 1.74159 17.4647 2.03333C17.7756 2.32507 17.9503 2.72075 17.9503 3.13333C17.9503 3.54591 17.7756 3.94159 17.4647 4.23333L10.0389 11.2L6.91221 11.9333L7.69388 9L15.1197 2.03333Z" stroke="#1E1E1E" stroke-width="1.6" stroke-linecap="round" stroke-linejoin="round"/>
</g>
<defs>
<clipPath id="clip0_26_1314">
<rect width="18.7599" height="17.6" fill="white" transform="translate(0.658875 0.200012)"/>
</clipPath>
</defs>
</svg>
