<svg width="20" height="18" viewBox="0 0 20 18" fill="none" xmlns="http://www.w3.org/2000/svg">
<g clip-path="url(#clip0_178_8989)">
<path d="M9.25568 3.13333H3.78403C3.36941 3.13333 2.97177 3.28786 2.67859 3.56291C2.38541 3.83796 2.2207 4.21101 2.2207 4.6V14.8667C2.2207 15.2556 2.38541 15.6287 2.67859 15.9038C2.97177 16.1788 3.36941 16.3333 3.78403 16.3333H14.7273C15.1419 16.3333 15.5396 16.1788 15.8328 15.9038C16.1259 15.6287 16.2906 15.2556 16.2906 14.8667V9.73333M15.1182 2.03333C15.4291 1.74159 15.8509 1.5777 16.2906 1.5777C16.7304 1.5777 17.1522 1.74159 17.4631 2.03333C17.7741 2.32507 17.9488 2.72075 17.9488 3.13333C17.9488 3.54591 17.7741 3.94159 17.4631 4.23333L10.0373 11.2L6.91069 11.9333L7.69235 9L15.1182 2.03333Z" stroke="#F3F3F3" stroke-width="1.6" stroke-linecap="round" stroke-linejoin="round"/>
</g>
<defs>
<clipPath id="clip0_178_8989">
<rect width="18.7599" height="17.6" fill="white" transform="translate(0.658203 0.200012)"/>
</clipPath>
</defs>
</svg>
